<?xml version="1.0" encoding="UTF-8"?>
<svg version="1.1" xmlns="http://www.w3.org/2000/svg" width="32" height="32">
<path d="M0 0 C1.14984375 -0.00386719 2.2996875 -0.00773438 3.484375 -0.01171875 C4.68578125 -0.00011719 5.8871875 0.01148437 7.125 0.0234375 C8.32640625 0.01183594 9.5278125 0.00023438 10.765625 -0.01171875 C12.49039062 -0.00591797 12.49039062 -0.00591797 14.25 0 C15.83167969 0.00507568 15.83167969 0.00507568 17.4453125 0.01025391 C20.125 0.3984375 20.125 0.3984375 21.96728516 1.55615234 C23.61461838 4.17757294 23.51354594 6.1910385 23.5234375 9.2734375 C23.52923828 10.99820312 23.52923828 10.99820312 23.53515625 12.7578125 C23.52355469 13.95921875 23.51195312 15.160625 23.5 16.3984375 C23.51160156 17.59984375 23.52320313 18.80125 23.53515625 20.0390625 C23.53128906 21.18890625 23.52742188 22.33875 23.5234375 23.5234375 C23.52005371 24.57789062 23.51666992 25.63234375 23.51318359 26.71875 C23.125 29.3984375 23.125 29.3984375 21.96728516 31.24072266 C19.34586456 32.88805588 17.332399 32.78698344 14.25 32.796875 C13.10015625 32.80074219 11.9503125 32.80460937 10.765625 32.80859375 C9.56421875 32.79699219 8.3628125 32.78539062 7.125 32.7734375 C5.92359375 32.78503906 4.7221875 32.79664063 3.484375 32.80859375 C1.75960938 32.80279297 1.75960938 32.80279297 0 32.796875 C-1.05445313 32.79349121 -2.10890625 32.79010742 -3.1953125 32.78662109 C-5.875 32.3984375 -5.875 32.3984375 -7.71728516 31.24072266 C-9.36461838 28.61930206 -9.26354594 26.6058365 -9.2734375 23.5234375 C-9.27730469 22.37359375 -9.28117188 21.22375 -9.28515625 20.0390625 C-9.27355469 18.83765625 -9.26195312 17.63625 -9.25 16.3984375 C-9.26160156 15.19703125 -9.27320313 13.995625 -9.28515625 12.7578125 C-9.28128906 11.60796875 -9.27742187 10.458125 -9.2734375 9.2734375 C-9.27005371 8.21898437 -9.26666992 7.16453125 -9.26318359 6.078125 C-8.875 3.3984375 -8.875 3.3984375 -7.71728516 1.55615234 C-5.09586456 -0.09118088 -3.082399 0.00989156 0 0 Z M-6.875 7.3984375 C-7.48960225 10.47291383 -7.44032559 13.40048288 -7.3125 16.5234375 C-7.30669922 17.33425781 -7.30089844 18.14507812 -7.29492188 18.98046875 C-7.21593337 23.97599054 -7.21593337 23.97599054 -4.875 28.3984375 C-2.39177741 28.86448724 -2.39177741 28.86448724 0.5 28.796875 C1.56734375 28.80074219 2.6346875 28.80460937 3.734375 28.80859375 C4.85328125 28.79699219 5.9721875 28.78539063 7.125 28.7734375 C8.24390625 28.78503906 9.3628125 28.79664062 10.515625 28.80859375 C12.11664062 28.80279297 12.11664062 28.80279297 13.75 28.796875 C14.73226563 28.79349121 15.71453125 28.79010742 16.7265625 28.78662109 C17.91378906 28.59447021 17.91378906 28.59447021 19.125 28.3984375 C21.81581684 24.36221224 21.52858999 21.26330291 21.5625 16.5234375 C21.59537109 15.72035156 21.62824219 14.91726563 21.66210938 14.08984375 C21.69943225 9.97075572 21.44754039 7.89603461 19.16015625 4.3671875 C15.04408368 1.69730259 11.93254741 1.6563706 7.125 1.7734375 C6.3309375 1.75410156 5.536875 1.73476563 4.71875 1.71484375 C-0.74536125 1.76037801 -3.73615378 2.55600277 -6.875 7.3984375 Z " fill="#000000" transform="translate(8.875,-0.3984375)"/>
<path d="M0 0 C3.96 0 7.92 0 12 0 C12 0.66 12 1.32 12 2 C8.04 2 4.08 2 0 2 C0 1.34 0 0.68 0 0 Z " fill="#000000" transform="translate(13,22)"/>
<path d="M0 0 C3.96 0 7.92 0 12 0 C12 0.66 12 1.32 12 2 C8.04 2 4.08 2 0 2 C0 1.34 0 0.68 0 0 Z " fill="#000000" transform="translate(13,15)"/>
<path d="M0 0 C3.96 0 7.92 0 12 0 C12 0.66 12 1.32 12 2 C8.04 2 4.08 2 0 2 C0 1.34 0 0.68 0 0 Z " fill="#000000" transform="translate(13,8)"/>
<path d="M0 0 C1.32 0 2.64 0 4 0 C4 1.32 4 2.64 4 4 C2.68 4 1.36 4 0 4 C0 2.68 0 1.36 0 0 Z " fill="#000000" transform="translate(7,21)"/>
<path d="M0 0 C1.32 0 2.64 0 4 0 C4 1.32 4 2.64 4 4 C2.68 4 1.36 4 0 4 C0 2.68 0 1.36 0 0 Z " fill="#000000" transform="translate(7,14)"/>
<path d="M0 0 C1.32 0 2.64 0 4 0 C4 1.32 4 2.64 4 4 C2.68 4 1.36 4 0 4 C0 2.68 0 1.36 0 0 Z " fill="#000000" transform="translate(7,7)"/>
</svg>
